Coordinates
version=1
nRows=11
nColumns=60
inDegrees=yes

Units are S.I. units (second, meters, Newtons, ...)
If the header above contains a line with 'inDegrees', this indicates whether rotational values are in degrees (yes) or radians (no).

endheader
time	pelvis_tilt	pelvis_list	pelvis_rotation	pelvis_tx	pelvis_ty	pelvis_tz	hip_flexion_r	hip_adduction_r	hip_rotation_r	knee_angle_r_beta	knee_angle_r	ankle_angle_r	subtalar_angle_r	mtp_angle_r	hip_flexion_l	hip_adduction_l	hip_rotation_l	knee_angle_l_beta	knee_angle_l	ankle_angle_l	subtalar_angle_l	mtp_angle_l	L5_S1_Flex_Ext	L5_S1_Lat_Bending	L5_S1_axial_rotation	L4_L5_Flex_Ext	L4_L5_Lat_Bending	L4_L5_axial_rotation	L3_L4_Flex_Ext	L3_L4_Lat_Bending	L3_L4_axial_rotation	L2_L3_Flex_Ext	L2_L3_Lat_Bending	L2_L3_axial_rotation	L1_L2_Flex_Ext	L1_L2_Lat_Bending	L1_L2_axial_rotation	L1_T12_Flex_Ext	L1_T12_Lat_Bending	L1_T12_axial_rotation	Abs_r3	Abs_r2	Abs_r1	Abs_t1	Abs_t2	arm_flex_r	arm_add_r	arm_rot_r	elbow_flex_r	pro_sup_r	wrist_flex_r	wrist_dev_r	arm_flex_l	arm_add_l	arm_rot_l	elbow_flex_l	pro_sup_l	wrist_flex_l	wrist_dev_l
     68.97000000	      0.89447958	      9.57406764	     89.30738297	      0.39894480	      0.94108132	      0.30215360	      1.21188647	     -4.50298961	      1.65719326	      0.24541627	    -14.06131658	      6.93889739	      0.00000000	      0.00000000	      1.52632758	     -6.23707545	     -4.02695943	      0.25830810	    -14.79996393	      9.47615620	      0.00000000	      0.00000000	     -8.31660762	      0.00173141	     -0.17198486	    -15.44477202	      0.00230277	     -0.18273391	    -13.66335467	      0.00420974	     -0.18273391	     -9.50505085	      0.00420974	     -0.15048675	     -7.72280184	      0.00353069	     -0.13973770	     -4.75210960	      0.00268195	     -0.12898865	    -59.40469660	      0.01958602	     -0.95652820	      0.00000000	      0.00000000	      9.88257670	    -27.72283160	     -1.12928526	    105.08512969	     75.61268945	      2.21989544	     22.74792159	      9.19386383	    -25.48950715	      0.15631170	     99.54120822	     73.77079594	      3.10409450	     11.87835764
     68.98000000	      0.91845665	      8.88524650	     89.19277425	      0.39913955	      0.94015110	      0.30522166	      2.17282114	     -4.45974646	      2.08865721	      0.24437870	    -14.00186839	      6.17596066	      0.00000000	      0.00000000	      2.58704777	     -6.29449601	     -4.00899568	      0.26237188	    -15.03280133	      8.66458931	      0.00000000	      0.00000000	     -8.34794148	     -0.00574956	     -0.14448455	    -15.50296213	     -0.00764692	     -0.15351484	    -13.71483306	     -0.01397949	     -0.15351484	     -9.54086232	     -0.01397949	     -0.12642398	     -7.75189846	     -0.01172451	     -0.11739370	     -4.77001376	     -0.00890607	     -0.10836341	    -59.62851123	     -0.06504021	     -0.80357973	      0.00000000	      0.00000000	     10.23664721	    -27.49810602	     -1.04645742	    104.14873536	     75.61925664	      2.31892245	     22.70770378	      9.52829790	    -25.60281712	      0.59122403	     99.12954756	     73.85308726	      3.20488587	     11.83946314
     68.99000000	      0.84007360	      8.21709254	     89.15411652	      0.39912877	      0.93916060	      0.30816679	      3.06163182	     -4.54860750	      2.26127665	      0.24257881	    -13.89874213	      5.93321968	      0.00000000	      0.00000000	      3.53094990	     -6.21153636	     -3.89985303	      0.26307086	    -15.07284988	      8.46001080	      0.00000000	      0.00000000	     -8.38765429	     -0.01378175	     -0.13526055	    -15.57671278	     -0.01832972	     -0.14371434	    -13.78007723	     -0.03350894	     -0.14371434	     -9.58625009	     -0.03350894	     -0.11835298	     -7.78877577	     -0.02810374	     -0.10989920	     -4.79270566	     -0.02134793	     -0.10144541	    -59.91217581	     -0.15590189	     -0.75227861	      0.00000000	      0.00000000	     10.59236925	    -27.37004606	     -0.91909930	    103.42937381	     75.64976925	      2.46711965	     22.60695871	      9.93849813	    -25.59464190	      0.85757738	     98.59820174	     73.95807624	      3.27406816	     11.74580033
     69.00000000	      0.80883492	      7.84236271	     89.12841824	      0.39910208	      0.93856785	      0.31104474	      3.60295523	     -4.58758468	      2.26543671	      0.24023413	    -13.76440196	      5.91860470	      0.00000000	      0.00000000	      4.08126465	     -6.17344820	     -3.87730379	      0.26131559	    -14.97228032	      8.43755003	      0.00000000	      0.00000000	     -8.49983397	     -0.01373361	     -0.12357733	    -15.78504166	     -0.01826570	     -0.13130091	    -13.96437722	     -0.03339189	     -0.13130091	     -9.71446024	     -0.03339189	     -0.10813016	     -7.89294582	     -0.02800557	     -0.10040658	     -4.85680513	     -0.02127336	     -0.09268300	    -60.71346403	     -0.15535730	     -0.68730004	      0.00000000	      0.00000000	     10.97656759	    -27.30097260	     -0.91338433	    103.17693623	     75.65313353	      2.49228040	     22.58395462	     10.32346668	    -25.53060876	      0.90683286	     98.49062540	     73.97284499	      3.28578413	     11.71979203
     69.01000000	      0.71387249	      7.03944676	     89.10701619	      0.39912271	      0.93736750	      0.31401194	      4.67717484	     -4.67422407	      2.52741927	      0.23981659	    -13.74047823	      5.51326612	      0.00000000	      0.00000000	      5.22081198	     -6.07125594	     -3.61546894	      0.26342328	    -15.09304223	      8.04918045	      0.00000000	      0.00000000	     -8.50543707	     -0.02440306	     -0.11901478	    -15.79544719	     -0.03245607	     -0.12645320	    -13.97358257	     -0.05933361	     -0.12645320	     -9.72086403	     -0.05933361	     -0.10413793	     -7.89814887	     -0.04976273	     -0.09669951	     -4.86000674	     -0.03780034	     -0.08926108	    -60.75348648	     -0.27605233	     -0.66192448	      0.00000000	      0.00000000	     11.59858563	    -27.11574556	     -0.57284903	    101.91134495	     75.74871221	      2.85054651	     22.27175391	     10.90690489	    -25.58182095	      1.44721129	     97.65763977	     74.16693027	      3.26723138	     11.41687298
     69.02000000	      0.69049480	      6.68389476	     89.10031977	      0.39917999	      0.93681057	      0.31689322	      5.23405798	     -4.68656227	      2.66145222	      0.23893132	    -13.68975608	      5.31452742	      0.00000000	      0.00000000	      5.81126074	     -6.04505061	     -3.43547491	      0.26384382	    -15.11713707	      7.83874651	      0.00000000	      0.00000000	     -8.61224322	     -0.02589223	     -0.10774321	    -15.99379689	     -0.03443667	     -0.11447716	    -14.14905439	     -0.06295437	     -0.11447716	     -9.84293278	     -0.06295437	     -0.09427531	     -7.99732906	     -0.05279944	     -0.08754136	     -4.92103578	     -0.04010706	     -0.08080741	    -61.51639212	     -0.29289809	     -0.59923543	      0.00000000	      0.00000000	     12.24972090	    -26.96777195	     -0.51255711	    101.18568271	     75.77000097	      2.95981748	     22.16881105	     11.51778486	    -25.55731754	      1.65698092	     97.26356130	     74.20939694	      3.24128223	     11.31426063
     69.03000000	      0.66951419	      6.19809074	     89.10392286	      0.39921698	      0.93604230	      0.31973697	      5.92319114	     -4.69637782	      2.74868228	      0.23743755	    -13.60416951	      5.06234932	      0.00000000	      0.00000000	      6.53589605	     -6.02478303	     -3.29765269	      0.26366600	    -15.10694903	      7.57689860	      0.00000000	      0.00000000	     -8.68945806	     -0.02527362	     -0.09980164	    -16.13719257	     -0.03361392	     -0.10603924	    -14.27591065	     -0.06145029	     -0.10603924	     -9.93118162	     -0.06145029	     -0.08732644	     -8.06903076	     -0.05153797	     -0.08108883	     -4.96515634	     -0.03914884	     -0.07485123	    -62.06793000	     -0.28590027	     -0.55506679	      0.00000000	      0.00000000	     13.04220355	    -26.85446941	     -0.23658075	    100.24169190	     75.80343557	      3.13501230	     22.01331224	     12.23615645	    -25.58870359	      2.07454270	     96.61526552	     74.25985860	      3.16925343	     11.16980061
     69.04000000	      0.66554856	      5.51383962	     89.15164808	      0.39921246	      0.93491965	      0.32258515	      6.85109104	     -4.68514494	      2.78078870	      0.23684091	    -13.56998464	      4.87098941	      0.00000000	      0.00000000	      7.51113815	     -6.02780299	     -3.15403437	      0.26402228	    -15.12736241	      7.40017771	      0.00000000	      0.00000000	     -8.72970909	     -0.02126173	     -0.09949898	    -16.21194275	     -0.02827810	     -0.10571767	    -14.34203907	     -0.05169577	     -0.10571767	     -9.97718452	     -0.05169577	     -0.08706161	     -8.10640786	     -0.04335692	     -0.08084292	     -4.98815578	     -0.03293442	     -0.07462424	    -62.35543907	     -0.24051692	     -0.55338348	      0.00000000	      0.00000000	     13.85890581	    -26.82335541	      0.25213478	     99.14446536	     75.90098807	      3.66578827	     21.43834686	     13.02843323	    -25.61674477	      2.62916619	     95.78309776	     74.38294268	      2.79741235	     10.62692711
     69.05000000	      0.69880039	      5.13616411	     89.20630598	      0.39915524	      0.93424275	      0.32533485	      7.45598567	     -4.64296657	      2.77469523	      0.23713903	    -13.58706560	      4.67732284	      0.00000000	      0.00000000	      8.15515910	     -6.05469840	     -2.98060072	      0.26497414	    -15.18189981	      7.14275505	      0.00000000	      0.00000000	     -8.82759387	     -0.00880599	     -0.08968185	    -16.39372457	     -0.01171197	     -0.09528696	    -14.50285396	     -0.02141089	     -0.09528696	    -10.08905703	     -0.02141089	     -0.07847162	     -8.19730366	     -0.01795718	     -0.07286650	     -5.04408714	     -0.01364048	     -0.06726138	    -63.05462023	     -0.09961515	     -0.49878353	      0.00000000	      0.00000000	     14.84326509	    -26.77044843	      0.50082394	     98.07995421	     75.93296161	      3.99560918	     21.07738970	     13.92354470	    -25.66140444	      3.10866988	     94.99690926	     74.41875904	      2.54783865	     10.29579315
     69.06000000	      0.72012485	      4.82479205	     89.27630013	      0.39911475	      0.93361597	      0.32810475	      8.02648069	     -4.60332699	      2.89817261	      0.23899519	    -13.69341549	      4.52719994	      0.00000000	      0.00000000	      8.74684567	     -6.06613637	     -2.72278269	      0.26687281	    -15.29068561	      6.93283480	      0.00000000	      0.00000000	     -8.94860277	      0.00153565	     -0.08093715	    -16.61845021	      0.00204241	     -0.08599572	    -14.70165950	      0.00373378	     -0.08599572	    -10.22735811	      0.00373378	     -0.07082000	     -8.30967253	      0.00313149	     -0.06576143	     -5.11323162	      0.00237872	     -0.06070286	    -63.91897474	      0.01737157	     -0.45014812	      0.00000000	      0.00000000	     15.80897845	    -26.66196733	      0.64118198	     97.25895201	     75.93633265	      4.13194995	     20.92339242	     14.86980512	    -25.58833658	      3.41786244	     94.41204123	     74.42153823	      2.45586762	     10.15934070
     69.07000000	      0.74303085	      4.43351654	     89.40263613	      0.39899614	      0.93282449	      0.33082596	      8.68841152	     -4.57324294	      2.90529398	      0.24108280	    -13.81302673	      4.35892889	      0.00000000	      0.00000000	      9.44040389	     -6.07884251	     -2.50794901	      0.26845712	    -15.38145971	      6.69510365	      0.00000000	      0.00000000	     -9.04459419	      0.01643630	     -0.07864630	    -16.79671587	      0.02186028	     -0.08356170	    -14.85936379	      0.03996321	     -0.08356170	    -10.33706670	      0.03996321	     -0.06881552	     -8.39881016	      0.03351690	     -0.06390012	     -5.16808112	      0.02545983	     -0.05898473	    -64.60463184	      0.18593069	     -0.43740715	      0.00000000	      0.00000000	     16.93469728	    -26.60815683	      0.98746288	     96.14803234	     75.93763081	      4.28490722	     20.76485458	     16.00230603	    -25.59087729	      3.97640761	     93.49238162	     74.41630913	      2.38321194	     10.03738224
